<svg xmlns="http://www.w3.org/2000/svg" fill="none" viewBox="0 0 200 200" stroke-width=".75" height="400" width="400"><g id="Product-Coming-soon-01"><g id="color 2"><path id="Vector" fill="#ff5d3c" d="M154.245 112.017L128.557 127.711C126.288 129.098 123.568 129.548 120.973 128.967C118.377 128.385 116.11 126.818 114.649 124.595L101.026 103.866L103.933 112.606L98.442 166.813C98.442 170.537 75.148 170.486 75.148 166.794L93.521 90.642C98.3522 88.9353 103.543 88.5098 108.588 89.407C120.121 93.911 122.857 112 122.857 112C136.157 99.964 140.944 95.631 141.211 95.394C144.818 92.565 157.788 109.219 154.245 112.017Z"></path><path id="Vector_2" fill="#ff5d3c" d="M64.565 47.513C63.539 47.379 62.365 49.83 61.601 53.346C63.009 52.7754 64.539 52.5727 66.047 52.757C66.028 50.591 65.686 47.645 64.565 47.513Z"></path><path id="Vector_3" fill="#ff5d3c" d="M60.86 59.388C60.746 62.997 61.392 66.76 62.95 65.543C63.691 64.954 64.45 63.302 65.04 61.043C63.5266 60.8636 62.086 60.2932 60.86 59.388Z"></path><path id="Vector_4" fill="#ff5d3c" d="M79.119 55.568L71.31 54.619C72.146 56.1 71.747 59.35 70.588 60.509L71.918 60.68C72.8093 60.5726 73.71 60.7807 74.464 61.268C74.616 60.527 74.764 60.147 75.775 60.243C76.8196 60.2499 77.8503 60.4833 78.796 60.927C79.2335 60.11 79.4889 59.208 79.5447 58.2829C79.6004 57.3578 79.4552 56.4316 79.119 55.568Z"></path><path id="Vector_5" fill="#ff5d3c" d="M167.431 177.149L150.73 168.884L152.554 160.487L164.638 166.491L167.431 177.149Z"></path><path id="Vector_6" fill="#ff5d3c" d="M161.883 155.907L154.359 152.184L155.632 146.294H159.356L161.883 155.907Z"></path><path id="Vector_7" fill="#ff5d3c" d="M49.479 177.149L32.778 168.884L34.602 160.487L46.686 166.491L49.479 177.149Z"></path><path id="Vector_8" fill="#ff5d3c" d="M43.931 155.907L36.407 152.184L37.68 146.294H41.404L43.931 155.907Z"></path></g><g id="color 1"><path id="Vector_9" fill="#040302" d="M123.959 151.557L122.021 160.667H116.454L99.867 152.449L101.102 140.232L123.959 151.557Z"></path><path id="Vector_10" fill="#040302" d="M128.367 130.694L126.429 139.796L108.056 130.694H128.367Z"></path><path id="Vector_11" fill="#040302" d="M83.603 131.549L80.848 143.026L68.194 136.756L69.486 130.694H81.855L83.603 131.549Z"></path><path id="Vector_12" fill="#040302" d="M78.055 154.539L76.592 160.629H63.159L65.724 148.422L78.055 154.539Z"></path><path id="Vector_13" fill="#040302" d="M170.965 184.807H145.467V179.012H170.965V184.807Z"></path><path id="Vector_14" fill="#040302" d="M53.032 184.807H27.534V179.012H53.032V184.807Z"></path><path id="Vector_15" fill="#040302" d="M82.311 72.877C82.235 73.904 82.14 74.797 82.102 75.309C86 74.911 84.876 73.41 82.311 72.877Z"></path><path id="Vector_16" fill="#040302" d="M71.576 73.467C71.595 73.96 72.564 74.493 74.16 74.891C74.217 74.397 74.426 73.391 74.597 72.402C72.45 72.555 71.557 72.972 71.576 73.467Z"></path><path id="Vector_17" fill="#040302" d="M76.174 62.39C75.547 64.803 74.92 65.068 74.559 64.707C74.4285 64.7459 74.2945 64.7717 74.159 64.784C75.812 65.848 74.9 66.779 73.759 66.569C75.317 67.481 74.595 68.393 73.531 68.223C72.8897 68.1173 72.276 67.8844 71.726 67.538C71.6166 67.8976 71.4768 68.2472 71.308 68.583C72.399 69.213 73.579 69.6746 74.808 69.952C75.628 68.5959 76.086 67.0519 76.138 65.468C75.8939 64.455 75.9063 63.3971 76.174 62.39Z"></path><path id="Vector_18" fill="#040302" d="M97.8 63.377C97.8427 63.6222 97.8681 63.8702 97.876 64.119L98.731 62.959L97.8 63.377Z"></path><path id="Vector_19" fill="#040302" d="M110.317 76.26C110.108 77.152 109.956 77.742 109.842 78.254L113.452 75.499L110.317 76.26Z"></path><path id="Vector_20" fill="#040302" d="M94.68 168.96C91.583 169.507 88.4367 169.723 85.294 169.606C84.894 172 83.337 178.347 82.957 180.206C81.4842 180.232 80.0495 180.677 78.8211 181.49C77.5927 182.303 76.6217 183.45 76.022 184.795H88.049C88.7963 184.783 89.513 184.496 90.063 183.99C90.613 183.484 90.9578 182.794 91.032 182.05C91.1414 180.119 91.8153 178.262 92.97 176.71C93.844 175.665 95.003 174.829 94.452 172.264C94.1833 171.166 94.263 170.011 94.68 168.96Z"></path><path id="Vector_21" fill="#040302" d="M170.338 91.592C164.79 95.012 157.304 97.805 153.979 98.376C152.646 98.6121 151.404 99.2099 150.388 100.104L149.704 100.788C146.569 97.026 142.845 94.138 141.173 95.449L141 95.6L147.631 89.482C148.159 89.0045 148.839 88.7287 149.55 88.703C156.622 88.459 166.9 89.389 170.338 91.592Z"></path><path id="Vector_22" fill="#040302" d="M112.939 48.6C112.931 48.2518 112.798 47.9181 112.564 47.6598C112.33 47.4015 112.012 47.2358 111.666 47.193C111.889 46.9186 112.004 46.5719 111.99 46.2184C111.975 45.8649 111.831 45.529 111.585 45.2743C111.34 45.0195 111.01 44.8635 110.657 44.8356C110.304 44.8078 109.953 44.91 109.671 45.123C109.619 44.7663 109.44 44.4401 109.168 44.2036C108.896 43.9671 108.548 43.8358 108.188 43.8335C107.827 43.8312 107.478 43.958 107.203 44.1911C106.927 44.4241 106.745 44.748 106.688 45.104C106.408 44.884 106.057 44.7749 105.702 44.7977C105.346 44.8205 105.012 44.9736 104.763 45.2276C104.513 45.4816 104.366 45.8187 104.35 46.1744C104.333 46.53 104.449 46.8792 104.674 47.155C104.418 47.1878 104.175 47.2874 103.97 47.4438C103.765 47.6002 103.604 47.8079 103.505 48.046C103.327 47.7515 103.066 47.5166 102.754 47.3714C102.443 47.2263 102.095 47.1774 101.755 47.2311C101.415 47.2848 101.1 47.4386 100.848 47.6728C100.596 47.9071 100.42 48.2111 100.342 48.546C100.106 48.2589 99.7811 48.0596 99.4183 47.9802C99.0556 47.9009 98.6767 47.9461 98.3428 48.1086C98.0089 48.2712 97.7396 48.5415 97.5783 48.876C97.4171 49.2105 97.3733 49.5895 97.454 49.952C97.1083 49.8302 96.7318 49.8273 96.3842 49.9436C96.0367 50.0599 95.7378 50.2889 95.535 50.5942C95.3322 50.8994 95.237 51.2637 95.2646 51.6292C95.2921 51.9946 95.4407 52.3405 95.687 52.612C95.31 52.6532 94.9589 52.8233 94.6929 53.0936C94.4269 53.3638 94.2624 53.7176 94.2271 54.0951C94.1918 54.4726 94.288 54.8508 94.4993 55.1656C94.7107 55.4804 95.0242 55.7126 95.387 55.823C95.1968 55.9325 95.0306 56.0792 94.8984 56.2543C94.7661 56.4295 94.6705 56.6295 94.6173 56.8424C94.5641 57.0553 94.5544 57.2768 94.5887 57.4935C94.623 57.7103 94.7006 57.9179 94.817 58.104L94.95 57.552C96.489 51.264 99.51 54.968 99.89 57.343C99.985 57.78 100.251 57.818 100.802 57.172C101.961 55.823 103.479 57.919 101.202 59.737C100.979 60.3571 100.901 61.0201 100.974 61.675L101.031 62.549C101.24 62.4732 101.431 62.3547 101.591 62.2009C101.751 62.0471 101.878 61.8615 101.962 61.656C102.108 62.0074 102.372 62.2974 102.708 62.4768C103.044 62.6561 103.431 62.7137 103.805 62.6399C104.178 62.5661 104.515 62.3654 104.757 62.0718C105 61.7782 105.133 61.4097 105.135 61.029C105.436 61.234 105.796 61.3337 106.16 61.3127C106.523 61.2917 106.87 61.151 107.145 60.9127C107.42 60.6743 107.609 60.3517 107.682 59.9949C107.755 59.6381 107.708 59.2672 107.548 58.94C107.781 58.9722 108.019 58.9531 108.244 58.8842C108.47 58.8152 108.677 58.698 108.853 58.5407C109.028 58.3834 109.167 58.1897 109.26 57.9732C109.353 57.7567 109.398 57.5225 109.391 57.287C109.397 57.0029 109.322 56.723 109.173 56.4805C109.025 56.238 108.811 56.0431 108.555 55.919C108.851 55.8338 109.117 55.6682 109.325 55.4406C109.532 55.2129 109.672 54.9322 109.73 54.6296C109.787 54.3271 109.759 54.0146 109.649 53.7268C109.54 53.4391 109.352 53.1875 109.108 53C109.371 52.7669 109.538 52.4443 109.576 52.095C109.853 52.3139 110.2 52.4244 110.552 52.4055C110.905 52.3867 111.238 52.2399 111.49 51.9927C111.742 51.7455 111.895 51.4149 111.92 51.0629C111.946 50.711 111.842 50.3618 111.628 50.081C111.992 50.0419 112.328 49.8684 112.57 49.5944C112.813 49.3205 112.944 48.9658 112.939 48.6Z"></path><path id="Vector_23" fill="#040302" d="M104.275 108.864L103.914 112.607L101.007 103.867L104.275 108.864Z"></path><path id="Vector_24" fill="#040302" d="M103.059 84.316C103.066 84.509 102.998 84.6972 102.871 84.8419C102.743 84.9866 102.564 85.0767 102.372 85.0938C102.18 85.1109 101.988 85.0535 101.837 84.9335C101.686 84.8136 101.586 84.6401 101.559 84.449C101.552 84.2561 101.62 84.0679 101.747 83.9232C101.875 83.7784 102.054 83.6883 102.246 83.6712C102.438 83.6542 102.63 83.7115 102.781 83.8315C102.932 83.9515 103.032 84.1249 103.059 84.316Z"></path><path id="Vector_25" fill="#040302" d="M95.269 79.129C95.2758 79.3219 95.2084 79.5102 95.0806 79.6549C94.9528 79.7996 94.7744 79.8897 94.5821 79.9068C94.3898 79.9238 94.1982 79.8665 94.047 79.7465C93.8957 79.6266 93.7962 79.4531 93.769 79.262C93.7546 79.1606 93.7609 79.0574 93.7877 78.9586C93.8145 78.8598 93.8611 78.7674 93.9247 78.6872C93.9883 78.607 94.0676 78.5406 94.1577 78.492C94.2478 78.4434 94.3469 78.4137 94.4489 78.4047C94.5509 78.3956 94.6536 78.4075 94.7509 78.4394C94.8481 78.4714 94.9379 78.5228 95.0146 78.5906C95.0913 78.6584 95.1535 78.7411 95.1972 78.8336C95.2409 78.9262 95.2654 79.0267 95.269 79.129Z"></path><path id="Vector_26" fill="#040302" d="M102.318 73.086C102.325 73.2791 102.258 73.4676 102.13 73.6125C102.003 73.7575 101.824 73.8479 101.632 73.8651C101.439 73.8823 101.248 73.8249 101.096 73.7049C100.945 73.5849 100.845 73.4113 100.818 73.22C100.811 73.0269 100.878 72.8385 101.006 72.6935C101.133 72.5485 101.312 72.4581 101.504 72.4409C101.697 72.4237 101.889 72.4811 102.04 72.6011C102.191 72.7211 102.291 72.8947 102.318 73.086Z"></path></g><g id="outlines"><path id="Vector_27" stroke="#8336d4" stroke-linejoin="round" d="M112.939 48.6C112.931 48.2518 112.798 47.9181 112.564 47.6598C112.33 47.4015 112.012 47.2358 111.666 47.193C111.889 46.9185 112.004 46.5719 111.99 46.2184C111.975 45.8649 111.831 45.529 111.585 45.2743C111.34 45.0195 111.01 44.8635 110.657 44.8356C110.304 44.8078 109.953 44.91 109.671 45.123C109.619 44.7663 109.44 44.4401 109.168 44.2036C108.896 43.9671 108.548 43.8358 108.188 43.8335C107.827 43.8312 107.478 43.958 107.203 44.1911C106.927 44.4241 106.745 44.748 106.688 45.104C106.408 44.884 106.057 44.7749 105.702 44.7977C105.346 44.8205 105.012 44.9736 104.763 45.2276C104.513 45.4816 104.366 45.8187 104.35 46.1744C104.333 46.53 104.449 46.8792 104.674 47.155C104.418 47.1878 104.175 47.2874 103.97 47.4438C103.765 47.6002 103.604 47.8079 103.505 48.046C103.327 47.7515 103.066 47.5166 102.754 47.3714C102.443 47.2263 102.095 47.1774 101.755 47.2311C101.415 47.2848 101.1 47.4386 100.848 47.6728C100.596 47.9071 100.42 48.2111 100.342 48.546C100.106 48.2589 99.7811 48.0596 99.4183 47.9802C99.0556 47.9009 98.6767 47.9461 98.3428 48.1086C98.0089 48.2712 97.7396 48.5415 97.5783 48.876C97.4171 49.2105 97.3733 49.5895 97.454 49.952C97.1083 49.8302 96.7318 49.8273 96.3842 49.9436C96.0367 50.0599 95.7378 50.2889 95.535 50.5942C95.3322 50.8994 95.237 51.2637 95.2646 51.6292C95.2921 51.9946 95.4407 52.3405 95.687 52.612C95.31 52.6532 94.9589 52.8233 94.6929 53.0936C94.4269 53.3638 94.2624 53.7176 94.2271 54.0951C94.1918 54.4726 94.288 54.8508 94.4993 55.1656C94.7107 55.4804 95.0242 55.7126 95.387 55.823C95.1968 55.9325 95.0306 56.0792 94.8984 56.2543C94.7661 56.4295 94.6705 56.6295 94.6173 56.8424C94.5641 57.0553 94.5544 57.2768 94.5887 57.4935C94.623 57.7103 94.7006 57.9179 94.817 58.104L94.95 57.552C96.489 51.264 99.51 54.968 99.89 57.343C99.985 57.78 100.251 57.818 100.802 57.172C101.961 55.823 103.479 57.919 101.202 59.737C100.979 60.3571 100.901 61.0201 100.974 61.675L101.031 62.549C101.24 62.4732 101.431 62.3547 101.591 62.2009C101.751 62.0471 101.878 61.8615 101.962 61.656C102.108 62.0074 102.372 62.2974 102.708 62.4768C103.044 62.6561 103.431 62.7137 103.805 62.6399C104.178 62.5661 104.515 62.3654 104.757 62.0718C105 61.7782 105.133 61.4097 105.135 61.029C105.436 61.234 105.796 61.3337 106.16 61.3127C106.523 61.2917 106.87 61.151 107.145 60.9127C107.42 60.6743 107.609 60.3517 107.682 59.9949C107.755 59.6381 107.708 59.2672 107.548 58.94C107.781 58.9722 108.019 58.9531 108.244 58.8842C108.47 58.8152 108.677 58.698 108.853 58.5407C109.028 58.3834 109.167 58.1897 109.26 57.9732C109.353 57.7567 109.398 57.5225 109.391 57.287C109.397 57.0029 109.322 56.723 109.173 56.4805C109.025 56.238 108.811 56.0431 108.555 55.919C108.851 55.8338 109.117 55.6682 109.325 55.4406C109.532 55.2129 109.672 54.9322 109.73 54.6296C109.787 54.3271 109.759 54.0146 109.649 53.7268C109.54 53.4391 109.352 53.1875 109.108 53C109.371 52.7669 109.538 52.4443 109.576 52.095C109.853 52.3139 110.2 52.4244 110.552 52.4055C110.905 52.3867 111.238 52.2399 111.49 51.9927C111.742 51.7455 111.895 51.4149 111.92 51.0629C111.946 50.711 111.842 50.3618 111.628 50.081C111.992 50.0419 112.328 49.8684 112.57 49.5944C112.813 49.3205 112.944 48.9658 112.939 48.6Z"></path><path id="Vector_28" stroke="#8336d4" stroke-linecap="round" stroke-linejoin="round" d="M100.76 43.636L100.817 48.501"></path><path id="Vector_29" stroke="#8336d4" stroke-linecap="round" stroke-linejoin="round" d="M118.335 48.14L115.979 52.376"></path><path id="Vector_30" stroke="#8336d4" stroke-linecap="round" stroke-linejoin="round" d="M136.423 78.967H131.559"></path><path id="Vector_31" stroke="#8336d4" stroke-linecap="round" stroke-linejoin="round" d="M131.825 96.399L127.588 94.006"></path><path id="Vector_32" stroke="#8336d4" stroke-linecap="round" stroke-linejoin="round" d="M83.622 109.737L85.997 105.501"></path><path id="Vector_33" stroke="#8336d4" stroke-linecap="round" stroke-linejoin="round" d="M70.664 97.102L73.058 95.659"></path><path id="Vector_34" stroke="#8336d4" stroke-linecap="round" stroke-linejoin="round" d="M65.667 78.967H70.512"></path><path id="Vector_35" stroke="#8336d4" stroke-linecap="round" stroke-linejoin="round" d="M82.881 48.596L85.389 52.756"></path><path id="Vector_36" stroke="#8336d4" stroke-linecap="round" stroke-linejoin="round" d="M170.965 184.807H145.467V179.012H170.965V184.807Z"></path><path id="Vector_37" stroke="#8336d4" stroke-linecap="round" stroke-linejoin="round" d="M167.431 177.149L150.73 168.884L152.554 160.487L164.638 166.491L167.431 177.149Z"></path><path id="Vector_38" stroke="#8336d4" stroke-linecap="round" stroke-linejoin="round" d="M161.883 155.907L154.359 152.184L155.632 146.294H159.356L161.883 155.907Z"></path><path id="Vector_39" stroke="#8336d4" stroke-linecap="round" stroke-linejoin="round" d="M164.638 166.491L152.554 160.487L154.359 152.184L161.883 155.907L164.638 166.491Z"></path><path id="Vector_40" stroke="#8336d4" stroke-linecap="round" stroke-linejoin="round" d="M167.906 178.954H148.545L150.73 168.884L167.431 177.149L167.906 178.954Z"></path><path id="Vector_41" stroke="#8336d4" stroke-linecap="round" stroke-linejoin="round" d="M53.032 184.807H27.534V179.012H53.032V184.807Z"></path><path id="Vector_42" stroke="#8336d4" stroke-linecap="round" stroke-linejoin="round" d="M49.479 177.149L32.778 168.884L34.602 160.487L46.686 166.491L49.479 177.149Z"></path><path id="Vector_43" stroke="#8336d4" stroke-linecap="round" stroke-linejoin="round" d="M43.931 155.907L36.407 152.184L37.68 146.294H41.404L43.931 155.907Z"></path><path id="Vector_44" stroke="#8336d4" stroke-linecap="round" stroke-linejoin="round" d="M46.686 166.491L34.602 160.487L36.407 152.184L43.931 155.907L46.686 166.491Z"></path><path id="Vector_45" stroke="#8336d4" stroke-linecap="round" stroke-linejoin="round" d="M49.954 178.954H30.593L32.778 168.884L49.479 177.149L49.954 178.954Z"></path><path id="Vector_46" stroke="#8336d4" stroke-linecap="round" stroke-linejoin="round" d="M69.486 130.694L58.029 184.807"></path><path id="Vector_47" stroke="#8336d4" stroke-linecap="round" stroke-linejoin="round" d="M140.109 184.807L128.367 130.694L116.929 184.807"></path><path id="Vector_48" stroke="#8336d4" stroke-linecap="round" stroke-linejoin="round" d="M76.592 160.629H63.159L69.486 130.694H83.812"></path><path id="Vector_49" stroke="#8336d4" stroke-linecap="round" stroke-linejoin="round" d="M102.071 130.694H128.367L122.021 160.667H99.05"></path><path id="Vector_50" stroke="#8336d4" stroke-linecap="round" stroke-linejoin="round" d="M109.69 79.1H126.03"></path><path id="Vector_51" stroke="#8336d4" stroke-linecap="round" stroke-linejoin="round" d="M122.838 77.532L126.03 79.1L123.066 81.086"></path><path id="Vector_52" stroke="#8336d4" stroke-linecap="round" stroke-linejoin="round" d="M68.745 51.826C72.4407 47.5095 76.9784 43.9926 82.0803 41.4905C87.1823 38.9884 92.7411 37.5538 98.4167 37.2744C104.092 36.9951 109.765 37.8769 115.088 39.8659C120.411 41.8549 125.272 44.9093 129.374 48.842"></path><path id="Vector_53" stroke="#8336d4" stroke-linecap="round" stroke-linejoin="round" d="M86.757 118.5C81.5049 116.666 76.6709 113.803 72.5378 110.08C68.4046 106.356 65.0551 101.846 62.6849 96.8129C60.3148 91.7799 58.9715 86.325 58.7338 80.7669C58.496 75.2088 59.3684 69.6591 61.3 64.442"></path><path id="Vector_54" stroke="#8336d4" stroke-linecap="round" stroke-linejoin="round" d="M111.21 119.409C108.55 120.118 105.826 120.557 103.078 120.72"></path><path id="Vector_55" stroke="#8336d4" stroke-linecap="round" stroke-linejoin="round" d="M136.575 57.944C140.205 64.1664 142.167 71.2209 142.27 78.4242C142.373 85.6274 140.615 92.7352 137.164 99.059"></path><path id="Vector_56" stroke="#8336d4" stroke-linecap="round" stroke-linejoin="round" d="M74.16 74.891C74.274 73.846 75.072 70.541 74.939 69.781"></path><path id="Vector_57" stroke="#8336d4" stroke-linecap="round" stroke-linejoin="round" d="M76.136 65.449C76.0847 67.033 75.6267 68.5772 74.806 69.933C73.5772 69.6555 72.3973 69.1943 71.306 68.565C71.4779 68.2306 71.6178 67.8807 71.724 67.52"></path><path id="Vector_58" stroke="#8336d4" stroke-linecap="round" stroke-linejoin="round" d="M60.86 59.388C60.746 62.979 61.296 65.645 62.323 65.771C63.614 65.931 65.173 61.971 65.8 56.936C66.427 51.901 65.876 47.683 64.565 47.513C63.539 47.379 62.365 49.831 61.601 53.346"></path><path id="Vector_59" stroke="#8336d4" stroke-linecap="round" stroke-linejoin="round" d="M70.607 60.509C71.766 59.35 72.165 56.101 71.329 54.619"></path><path id="Vector_60" stroke="#8336d4" stroke-linecap="round" stroke-linejoin="round" d="M78.8 60.946C79.242 60.1306 79.5 59.2282 79.5558 58.3024C79.6116 57.3765 79.4639 56.4497 79.123 55.587"></path><path id="Vector_61" stroke="#8336d4" stroke-linecap="round" stroke-linejoin="round" d="M66.047 52.757C62.475 52.396 59.397 53.877 59.131 56.12C58.865 58.363 61.48 60.52 65.026 61.057"></path><path id="Vector_62" stroke="#8336d4" stroke-linecap="round" stroke-linejoin="round" d="M71.937 60.68L70.607 60.509L62.931 65.562"></path><path id="Vector_63" stroke="#8336d4" stroke-linecap="round" stroke-linejoin="round" d="M65.1 47.855L71.332 54.619L79.749 55.664C83.435 56.12 83.131 61.687 79.407 61.573"></path><path id="Vector_64" stroke="#8336d4" stroke-linecap="round" stroke-linejoin="round" d="M82.311 72.9C85.541 73.546 86.529 75.747 77.922 75.39C71.922 75.14 68.935 72.805 74.597 72.406"></path><path id="Vector_65" stroke="#8336d4" stroke-linecap="round" stroke-linejoin="round" d="M82.1 75.309C82.157 74.378 82.419 72.136 82.461 70.274C82.531 67.139 82.315 66.357 81.511 64.86C80.7759 63.4802 79.8909 62.1857 78.872 61C78.323 60.5 76.914 60.385 75.794 60.278C74.9 60.192 74.715 60.488 74.578 60.978C74.3623 61.9762 74.2729 62.9975 74.312 64.018C74.342 64.873 75.3 65.899 76.193 62.384C75.737 64.493 75.965 66.317 77.618 67.438"></path><path id="Vector_66" stroke="#8336d4" stroke-linecap="round" stroke-linejoin="round" d="M71.747 63.929C71.006 64.195 71.006 65.22 71.766 65.753C72.3735 66.1453 73.0508 66.4169 73.761 66.553C74.901 66.778 75.813 65.831 74.161 64.767"></path><path id="Vector_67" stroke="#8336d4" stroke-linecap="round" stroke-linejoin="round" d="M71.766 65.753C71.5991 65.8329 71.4576 65.9575 71.3572 66.113C71.2569 66.2685 71.2017 66.4488 71.1978 66.6338C71.1938 66.8188 71.2413 67.0013 71.3349 67.1609C71.4285 67.3206 71.5646 67.4511 71.728 67.538C72.2777 67.885 72.8915 68.118 73.533 68.223C74.597 68.395 75.333 67.481 73.761 66.569"></path><path id="Vector_68" stroke="#8336d4" stroke-linecap="round" stroke-linejoin="round" d="M74.483 61.287C73.8315 60.8952 73.0949 60.667 72.336 60.622C71.291 60.592 71.193 61.96 72.222 62.371C72.8841 62.6668 73.59 62.8526 74.312 62.921"></path><path id="Vector_69" stroke="#8336d4" stroke-linecap="round" stroke-linejoin="round" d="M71.88 62.161C71.139 62.485 71.138 63.551 71.956 64.1C72.7241 64.6221 73.6569 64.8448 74.578 64.726"></path><path id="Vector_70" stroke="#8336d4" stroke-linecap="round" stroke-linejoin="round" d="M71.576 73.467C71.5 82.682 71.586 88.267 71.709 91.726C71.7365 93.0217 72.1406 94.2813 72.8721 95.3511C73.6036 96.4208 74.6308 97.2545 75.8282 97.7501C77.0256 98.2458 78.3414 98.3821 79.615 98.1423C80.8886 97.9026 82.0648 97.2972 83 96.4C86.238 93.305 89.2242 89.9567 91.93 86.387"></path><path id="Vector_71" stroke="#8336d4" stroke-linecap="round" stroke-linejoin="round" d="M84.636 74.355C84.058 77.68 82.706 86.517 82.216 88.743"></path><path id="Vector_72" stroke="#8336d4" stroke-linecap="round" stroke-linejoin="round" d="M83.774 79.546C80.43 80.933 73.362 80.686 71.557 78.346"></path><path id="Vector_73" stroke="#8336d4" stroke-linecap="round" stroke-linejoin="round" d="M97.8 63.377C98.1189 63.2576 98.4299 63.118 98.731 62.959L97.883 64.1"></path><path id="Vector_74" stroke="#8336d4" stroke-linecap="round" stroke-linejoin="round" d="M94.813 58.1C93.519 64.15 96.544 63.756 97.796 63.381C97.9564 64.1595 97.9111 64.9664 97.6645 65.722C97.418 66.4777 96.9787 67.156 96.39 67.69C97.91 72.402 100.152 71.871 103.078 66.171C101.748 65.601 101.216 64.004 101.026 62.541"></path><path id="Vector_75" stroke="#8336d4" stroke-linecap="round" stroke-linejoin="round" d="M84.04 77.836C87.555 72.592 91.683 69.814 94.471 68.792C95.1737 68.5483 95.8245 68.1752 96.39 67.692"></path><path id="Vector_76" stroke="#8336d4" stroke-linecap="round" stroke-linejoin="round" d="M91.45 74.284C90.25 76.811 89.084 77.891 91.925 86.384C92.344 87.638 92.856 89.064 93.483 90.684"></path><path id="Vector_77" stroke="#8336d4" stroke-linecap="round" stroke-linejoin="round" d="M109.823 78.236C109.937 77.722 110.089 77.136 110.298 76.236L113.452 75.494"></path><path id="Vector_78" stroke="#8336d4" stroke-linecap="round" stroke-linejoin="round" d="M108.531 89.426C108.555 85.6602 108.988 81.9081 109.823 78.236C114.636 74.607 108.723 78.552 143.358 52.775C145.584 51.119 138.779 41.775 136.537 43.408C136.537 43.408 108.911 64.48 106.837 65.562C105.165 66.437 103.949 66.531 103.075 66.151"></path><path id="Vector_79" stroke="#8336d4" stroke-linecap="round" stroke-linejoin="round" d="M149.932 46.24C150.224 46.0308 150.438 45.7298 150.54 45.385C150.65 44.585 148.902 43.661 146.854 44.285C145.754 44.619 145.391 45.463 147.154 45.69"></path><path id="Vector_80" stroke="#8336d4" stroke-linecap="round" stroke-linejoin="round" d="M150.106 44.62C150.897 43.576 149.301 42.267 147.024 42.855C145.948 43.138 145.811 43.799 147.263 44.18"></path><path id="Vector_81" stroke="#8336d4" stroke-linecap="round" stroke-linejoin="round" d="M143.681 50.856C145.273 49.7643 146.989 48.865 148.792 48.177C151.592 46.922 149.607 45.017 146.835 45.783C146.017 46.01 146.322 47.113 148.488 47.056"></path><path id="Vector_82" stroke="#8336d4" stroke-linecap="round" stroke-linejoin="round" d="M138.437 43.675C140.622 42.193 146.715 37.921 146.93 38.275C147.207 38.735 145.239 41.6 145.239 41.6C145.239 41.6 145.201 44.7 143.239 44.735"></path><path id="Vector_83" stroke="#8336d4" stroke-linecap="round" stroke-linejoin="round" d="M145.277 41.546C150.008 39.817 154.477 40.159 153.77 40.501C152.447 41.145 148.76 42.235 147.024 42.855"></path><path id="Vector_84" stroke="#8336d4" stroke-linecap="round" stroke-linejoin="round" d="M147.671 47.855C147.713 47.5562 147.656 47.2517 147.507 46.989"></path><path id="Vector_85" stroke="#8336d4" stroke-linecap="round" stroke-linejoin="round" d="M94.661 168.941C91.5639 169.487 88.4177 169.704 85.275 169.587C84.875 171.981 83.318 178.328 82.938 180.187H82.919C81.447 180.221 80.015 180.673 78.7899 181.489C77.5649 182.306 76.5973 183.454 76 184.8H88.049C88.7963 184.788 89.513 184.501 90.063 183.995C90.613 183.489 90.9578 182.799 91.032 182.055C91.1414 180.124 91.8153 178.267 92.97 176.715C93.844 175.67 94.984 174.853 94.433 172.289C94.1745 171.175 94.2539 170.01 94.661 168.941V168.941Z"></path><path id="Vector_86" stroke="#8336d4" stroke-linecap="round" stroke-linejoin="round" d="M141 95.564L147.631 89.464C148.158 88.9854 148.838 88.7093 149.55 88.685C156.619 88.458 166.897 89.406 170.336 91.591C164.788 95.011 157.302 97.804 153.977 98.375C152.326 98.6761 150.822 99.518 149.702 100.768"></path><path id="Vector_87" stroke="#8336d4" stroke-linecap="round" stroke-linejoin="round" d="M5 184.807H195"></path><path id="Vector_88" stroke="#8336d4" stroke-linecap="round" stroke-linejoin="round" d="M65.724 148.422L78.036 154.521"></path><path id="Vector_89" stroke="#8336d4" stroke-linecap="round" stroke-linejoin="round" d="M99.867 152.449L116.454 160.667"></path><path id="Vector_90" stroke="#8336d4" stroke-linecap="round" stroke-linejoin="round" d="M68.194 136.756L80.848 143.026"></path><path id="Vector_91" stroke="#8336d4" stroke-linecap="round" stroke-linejoin="round" d="M101.102 140.232L123.959 151.557"></path><path id="Vector_92" stroke="#8336d4" stroke-linecap="round" stroke-linejoin="round" d="M81.855 130.694L83.622 131.569"></path><path id="Vector_93" stroke="#8336d4" stroke-linecap="round" stroke-linejoin="round" d="M108.056 130.694L126.429 139.796"></path><path id="Vector_94" stroke="#8336d4" stroke-linecap="round" stroke-linejoin="round" d="M98.423 166.814L104.293 108.866L114.63 124.6C116.091 126.823 118.358 128.39 120.954 128.972C123.549 129.553 126.269 129.103 128.538 127.716L154.245 112.016C156.145 110.516 153.321 105.076 149.704 100.768C147.821 98.527 143.314 93.768 141.004 95.563L122.821 112.016C122.821 112.016 120.083 93.93 108.55 89.426C103.505 88.5288 98.3142 88.9543 93.483 90.661L75.11 166.814C75.11 170.537 98.423 170.537 98.423 166.814Z"></path><path id="Vector_95" stroke="#8336d4" stroke-linecap="round" stroke-linejoin="round" d="M103.914 112.607L101.007 103.867L104.293 108.866"></path><path id="Vector_96" stroke="#8336d4" stroke-linecap="round" stroke-linejoin="round" d="M98.537 70.826C97.321 76.146 97.625 82.377 99.069 89.275"></path><path id="Vector_97" stroke="#8336d4" stroke-linecap="round" stroke-linejoin="round" d="M106.232 93.854C108.109 95.69 110.584 96.7902 113.205 96.954"></path><path id="Vector_98" stroke="#8336d4" stroke-linecap="round" stroke-linejoin="round" d="M76.326 161.741C76.326 164.077 98.936 164.077 98.936 161.741"></path><path id="Vector_99" stroke="#8336d4" stroke-linecap="round" stroke-linejoin="round" d="M150.352 114.394C152.837 111.994 139.81 96.794 137.164 99.059"></path><path id="Vector_100" stroke="#8336d4" stroke-linecap="round" stroke-linejoin="round" d="M59.967 118.487H51.17"></path><path id="Vector_101" stroke="#8336d4" stroke-linecap="round" stroke-linejoin="round" d="M55.569 122.886V114.089"></path><path id="Vector_102" stroke="#8336d4" stroke-linecap="round" stroke-linejoin="round" d="M170.775 77.361L168.324 77.02L167.241 74.796L166.158 77.02L163.707 77.361L165.474 79.091L165.056 81.522L167.241 80.364L169.426 81.522L169.008 79.091L170.775 77.361Z"></path><path id="Vector_103" stroke="#8336d4" stroke-linecap="round" stroke-linejoin="round" d="M34.051 46.961V48.671"></path><path id="Vector_104" stroke="#8336d4" stroke-linecap="round" stroke-linejoin="round" d="M32.455 50.267H30.745"></path><path id="Vector_105" stroke="#8336d4" stroke-linecap="round" stroke-linejoin="round" d="M37.357 50.267H35.647"></path><path id="Vector_106" stroke="#8336d4" stroke-linecap="round" stroke-linejoin="round" d="M34.051 53.555V51.864"></path><path id="Vector_107" stroke="#8336d4" stroke-linecap="round" stroke-linejoin="round" d="M35.647 50.267C35.2226 50.267 34.8157 50.0984 34.5156 49.7984C34.2156 49.4983 34.047 49.0913 34.047 48.667C34.047 49.0913 33.8784 49.4983 33.5784 49.7984C33.2783 50.0984 32.8713 50.267 32.447 50.267C32.8709 50.2686 33.2769 50.4377 33.5766 50.7374C33.8763 51.0371 34.0454 51.4431 34.047 51.867C34.0488 51.4432 34.218 51.0373 34.5177 50.7377C34.8173 50.438 35.2232 50.2688 35.647 50.267V50.267Z"></path><path id="Vector_108" stroke="#8336d4" stroke-linecap="round" stroke-linejoin="round" d="M115.352 16.923L118.107 20.798L121.318 15.174"></path></g></g></svg>